<svg xmlns="http://www.w3.org/2000/svg" viewBox="0 0 676.82 676.82"><defs><style>.cls-1{fill:red;}.cls-2{fill:#fff;}</style></defs><title>Logotipo</title><g id="Layer_2" data-name="Layer 2"><g id="Layer_1-2" data-name="Layer 1"><rect class="cls-1" width="676.82" height="676.82"/><rect class="cls-2" x="141.55" y="343.7" width="38.1" height="102.26"/><polygon class="cls-2" points="190.82 445.37 228.53 445.37 228.53 417.93 290.12 417.93 290.12 386.54 228.33 386.54 228.33 374.3 298.81 374.3 298.81 343.11 190.82 343.11 190.82 445.37"/><polygon class="cls-2" points="309.19 445.37 346.89 445.37 346.89 417.93 408.49 417.93 408.49 386.54 346.7 386.54 346.7 374.3 417.17 374.3 417.17 343.11 309.19 343.11 309.19 445.37"/><polygon class="cls-2" points="427.29 445.37 465 445.37 465 417.93 526.59 417.93 526.59 386.54 464.8 386.54 464.8 374.3 535.27 374.3 535.27 343.11 427.29 343.11 427.29 445.37"/><path class="cls-2" d="M364.42,230.86H307.57L265.52,333.12h42.05q3.45-9.21,6.91-18.42l43.49-.14,7,18.63,42.38-.07Zm-40.27,57.25,12-31.58,12,31.58Z"/><path class="cls-2" d="M253.28,275.68c9.81-13,9.91-28.87,2-37.57-5.52-6.08-13.49-7.05-16.63-7.25H141.55V333.12h97.32c1-.06,18.85-1.43,26.45-15.79C272.24,304.26,267.73,286,253.28,275.68Zm-73.63-20.24h38c3.1-.24,5.55,2.79,5.37,5.92-.17,2.89-2.53,5.39-5.37,5.14h-38Zm51.13,44.62a5.83,5.83,0,0,1-6.32,5.13H179.65V294.13h44.81A5.85,5.85,0,0,1,230.78,300.06Z"/></g></g></svg>